HIERARCHY
ROOT Hips
{
	OFFSET	0.00	0.00	0.00
	CHANNELS 6 Xposition Yposition Zposition Zrotation Xrotation Yrotation
	JOINT LeftUpLeg
	{
		OFFSET	 0.126116	-0.014019	-0.065224
		CHANNELS 3 Zrotation Xrotation Yrotation
		JOINT LeftLeg
		{
			OFFSET	 0.000000	 0.000000	 0.569914
			CHANNELS 3 Zrotation Xrotation Yrotation
			JOINT LeftFoot
			{
				OFFSET	 0.000000	 0.000000	 0.544423
				CHANNELS 3 Zrotation Xrotation Yrotation
				JOINT LeftToeBase
				{
					OFFSET	 0.000000	 0.000000	 0.207117
					CHANNELS 3 Zrotation Xrotation Yrotation
					End Site
					{
						OFFSET	 0.000000	 0.000000	 0.207117
					}
				}
			}
		}
	}
	JOINT RightUpLeg
	{
		OFFSET	-0.124023	-0.008373	-0.065224
		CHANNELS 3 Zrotation Xrotation Yrotation
		JOINT RightLeg
		{
			OFFSET	 0.000000	 0.000000	 0.570047
			CHANNELS 3 Zrotation Xrotation Yrotation
			JOINT RightFoot
			{
				OFFSET	 0.000000	 0.000000	 0.544354
				CHANNELS 3 Zrotation Xrotation Yrotation
				JOINT RightToeBase
				{
					OFFSET	 0.000000	 0.000000	 0.207540
					CHANNELS 3 Zrotation Xrotation Yrotation
					End Site
					{
						OFFSET	 0.000000	 0.000000	 0.207540
					}
				}
			}
		}
	}
	JOINT Spine
	{
		OFFSET	 0.000184	-0.007763	 0.117403
		CHANNELS 3 Zrotation Xrotation Yrotation
		JOINT Spine1
		{
			OFFSET	 0.000000	 0.000000	 0.137269
			CHANNELS 3 Zrotation Xrotation Yrotation
			JOINT Spine2
			{
				OFFSET	 0.000000	 0.000000	 0.156879
				CHANNELS 3 Zrotation Xrotation Yrotation
				JOINT LeftShoulder
				{
					OFFSET	 0.080501	-0.002496	 0.160144
					CHANNELS 3 Zrotation Xrotation Yrotation
					JOINT LeftArm
					{
						OFFSET	 0.000000	 0.000000	 0.164363
						CHANNELS 3 Zrotation Xrotation Yrotation
						JOINT LeftForeArm
						{
							OFFSET	 0.000000	 0.000000	 0.364576
							CHANNELS 3 Zrotation Xrotation Yrotation
							JOINT LeftHand
							{
								OFFSET	 0.000000	 0.000000	 0.360812
								CHANNELS 3 Zrotation Xrotation Yrotation
								JOINT LeftHandIndex1
								{
									OFFSET	 0.000000	 0.000000	 0.086006
									CHANNELS 3 Zrotation Xrotation Yrotation
									JOINT LeftHandIndex2
									{
										OFFSET	 0.000000	 0.000000	 0.047236
										CHANNELS 3 Zrotation Xrotation Yrotation
										JOINT LeftHandIndex3
										{
											OFFSET	-0.004284	-0.000551	 0.038166
											CHANNELS 3 Zrotation Xrotation Yrotation
											End Site
											{
												OFFSET	-0.004284	-0.000551	 0.038166
											}
										}
									}
								}
							}
						}
					}
				}
				JOINT Neck
				{
					OFFSET	 0.000000	 0.000000	 0.176489
					CHANNELS 3 Zrotation Xrotation Yrotation
					JOINT Head
					{
						OFFSET	 0.000000	-0.001747	 0.077940
						CHANNELS 3 Zrotation Xrotation Yrotation
						End Site
						{
							OFFSET	 0.000000	-0.001747	 0.077940
						}
					}
				}
				JOINT RightShoulder
				{
					OFFSET	-0.080363	 0.000306	 0.159706
					CHANNELS 3 Zrotation Xrotation Yrotation
					JOINT RightArm
					{
						OFFSET	 0.000000	 0.000000	 0.164196
						CHANNELS 3 Zrotation Xrotation Yrotation
						JOINT RightForeArm
						{
							OFFSET	 0.000000	 0.000000	 0.365611
							CHANNELS 3 Zrotation Xrotation Yrotation
							JOINT RightHand
							{
								OFFSET	 0.000000	 0.000000	 0.360648
								CHANNELS 3 Zrotation Xrotation Yrotation
								JOINT RightHandIndex1
								{
									OFFSET	 0.000000	 0.000000	 0.069977
									CHANNELS 3 Zrotation Xrotation Yrotation
									JOINT RightHandIndex2
									{
										OFFSET	 0.000000	 0.000000	 0.052305
										CHANNELS 3 Zrotation Xrotation Yrotation
										JOINT RightHandIndex3
										{
											OFFSET	 0.009002	-0.000782	 0.042196
											CHANNELS 3 Zrotation Xrotation Yrotation
											End Site
											{
												OFFSET	 0.009002	-0.000782	 0.042196
											}
										}
									}
								}
							}
						}
					}
				}
			}
		}
	}
}
MOTION
Frames:    13
Frame Time: 0.03333334
-3.096966	-13.906270	 0.345200	-28.512740	 7.811358	 1.638101	 4.546381	-21.192920	 174.318700	-1.383547	-39.205480	-0.003010	 0.070831	 84.283780	-0.311817	-2.386010	 28.412580	 0.000872	-2.613656	-22.037370	-178.808900	-0.288238	-40.159700	-0.204685	-0.357003	 85.200450	 0.360360	 2.407678	 17.698860	-0.218417	 7.725945	 7.503514	-0.746329	 13.338840	 4.763863	-2.450716	 16.197660	 2.938552	 0.661121	-114.142000	 89.356840	-155.063600	 53.869930	 59.699280	-76.026600	-4.130785	-4.069509	-20.158920	 5.176462	-10.692830	-5.388467	-3.812334	 37.924440	-2.927599	-2.450526	 36.184240	 0.754587	-1.378229	 35.397820	-2.634230	 0.447778	 2.555476	-0.643197	 4.726098	 6.442990	-0.920265	 94.801200	 86.935930	 171.484500	-49.781940	 69.812740	 67.507290	-3.225528	-12.508880	 25.358300	-22.075650	-11.599810	 9.735929	 6.437017	 35.671460	-0.771858	 2.830251	 35.756010	-7.813440	-2.350882	 35.473990	 5.254307
-3.095971	-13.905180	 0.340932	-28.512070	 8.026230	 1.692869	 4.525989	-22.049590	 174.184800	-1.656951	-40.013930	-0.200876	 0.082460	 84.631870	-0.559036	-2.385796	 28.461390	-0.000182	-2.477759	-22.931440	-178.754900	-0.127317	-40.909090	-0.002477	-0.211730	 85.555650	 0.452602	 2.407688	 17.328100	-0.225660	 7.666164	 7.556466	-0.793805	 13.312210	 4.751994	-2.519522	 16.185300	 2.869375	 0.670441	-115.633500	 89.398340	-153.594900	 56.112450	 59.987680	-78.245660	-3.648507	-4.411971	-20.777960	 5.848893	-10.762310	-5.434033	-3.812334	 37.924440	-2.927599	-2.450526	 36.184240	 0.754587	-1.378229	 35.397820	-2.634230	 0.458114	 2.651803	-0.646090	 4.734028	 6.476750	-0.933066	 94.721710	 86.911040	 171.581200	-53.505020	 70.293240	 71.713490	-3.196356	-12.993870	 25.813010	-22.620220	-11.664670	 9.779639	 6.437017	 35.671460	-0.771858	 2.830251	 35.756010	-7.813440	-2.350882	 35.473990	 5.254307
-3.095387	-13.904980	 0.343478	-28.530070	 8.050982	 1.760074	 4.529092	-22.209750	 174.150400	-1.690554	-40.334650	-0.229173	 0.158756	 84.739400	-0.664595	-2.385711	 28.479480	-0.000574	-2.463256	-23.097180	-178.763200	-0.103963	-41.149350	 0.026988	-0.339979	 85.648140	 0.616287	 2.407691	 17.570470	-0.220933	 7.569590	 7.535365	-0.856376	 13.261910	 4.612892	-2.525209	 16.131650	 2.698667	 0.692366	-115.672300	 89.395100	-153.542700	 55.966870	 59.605930	-78.063720	-3.705353	-4.287514	-21.061330	 5.372706	-10.774970	-5.448475	-3.812334	 37.924440	-2.927599	-2.450526	 36.184240	 0.754587	-1.378229	 35.397820	-2.634230	 0.453256	 2.594011	-0.613017	 4.719555	 6.410513	-0.969938	 94.718510	 86.900290	 171.570100	-53.434730	 70.014500	 71.793390	-3.155324	-12.941220	 25.991240	-22.359960	-11.673960	 9.793416	 6.437017	 35.671460	-0.771858	 2.830251	 35.756010	-7.813440	-2.350882	 35.473990	 5.254307
-3.094880	-13.904620	 0.342638	-28.542530	 8.046732	 1.800479	 4.498292	-22.398330	 174.106600	-1.739531	-40.663520	-0.287530	 0.043138	 84.844670	-0.606911	-2.385547	 28.516820	-0.001385	-2.447074	-23.263840	-178.769600	-0.085308	-41.410660	 0.055327	-0.464814	 85.737040	 0.773588	 2.407678	 17.736530	-0.217681	 7.450118	 7.532082	-0.896145	 13.208020	 4.483624	-2.528881	 16.071550	 2.535848	 0.712719	-115.541800	 89.388980	-153.656400	 55.792960	 59.184050	-77.887650	-3.756609	-4.154038	-21.360160	 4.868894	-10.792120	-5.467947	-3.812334	 37.924440	-2.927599	-2.450526	 36.184240	 0.754587	-1.378229	 35.397820	-2.634230	 0.444635	 2.513809	-0.591859	 4.702861	 6.367517	-1.008069	 94.721720	 86.892850	 171.553500	-53.327720	 69.706730	 71.851000	-3.121619	-12.910740	 26.231060	-22.088880	-11.686590	 9.812606	 6.437017	 35.671460	-0.771858	 2.830251	 35.756010	-7.813440	-2.350882	 35.473990	 5.254307
-3.094220	-13.904130	 0.341669	-28.562520	 8.036045	 1.822787	 4.504858	-22.654280	 174.080700	-1.763896	-41.012600	-0.306335	 0.136995	 84.951700	-0.716251	-2.385321	 28.567710	-0.002484	-2.432974	-23.447750	-178.760500	-0.071428	-41.700780	 0.080944	-0.592517	 85.826510	 0.929079	 2.407664	 17.876620	-0.214946	 7.312077	 7.545621	-0.924650	 13.153910	 4.360078	-2.529193	 16.005070	 2.377336	 0.731992	-115.304200	 89.378500	-153.872200	 55.580170	 58.756400	-77.709480	-3.843344	-4.010892	-21.688320	 4.332680	-10.812090	-5.492097	-3.812334	 37.924440	-2.927599	-2.450526	 36.184240	 0.754587	-1.378229	 35.397820	-2.634230	 0.435598	 2.416548	-0.577462	 4.681137	 6.337917	-1.040976	 94.729540	 86.887180	 171.531300	-53.171120	 69.378040	 71.869710	-3.085082	-12.895760	 26.524810	-21.802590	-11.702110	 9.837003	 6.437017	 35.671460	-0.771858	 2.830251	 35.756010	-7.813440	-2.350882	 35.473990	 5.254307
-3.093241	-13.903400	 0.340324	-28.601220	 8.038476	 1.832519	 4.526012	-23.009420	 174.055000	-1.800838	-41.478320	-0.326200	 0.254951	 85.090000	-0.847809	-2.385170	 28.602020	-0.003224	-2.421167	-23.711530	-178.727000	-0.057702	-42.103740	 0.109461	-0.755577	 85.940930	 1.120782	 2.407625	 18.037310	-0.211793	 7.118307	 7.588040	-0.949928	 13.084200	 4.217212	-2.522918	 15.913790	 2.190469	 0.753845	-114.933300	 89.361730	-154.206700	 55.255660	 58.262360	-77.492810	-3.874681	-3.890360	-22.133000	 3.812587	-10.841020	-5.527006	-3.812334	 37.924440	-2.927599	-2.450526	 36.184240	 0.754587	-1.378229	 35.397820	-2.634230	 0.422782	 2.279313	-0.568560	 4.645394	 6.312259	-1.050709	 94.744140	 86.880080	 171.495600	-52.901490	 68.955580	 71.828770	-3.025795	-12.893100	 26.952000	-21.427920	-11.724860	 9.873798	 6.437017	 35.671460	-0.771858	 2.830251	 35.756010	-7.813440	-2.350882	 35.473990	 5.254307
-3.092412	-13.902690	 0.339105	-28.639680	 8.055524	 1.840103	 4.555700	-23.294590	 174.037200	-1.833421	-41.892180	-0.337791	 0.355868	 85.209970	-0.953106	-2.385091	 28.619840	-0.003608	-2.412837	-23.966400	-178.698700	-0.052604	-42.473400	 0.128988	-0.894813	 86.039430	 1.277463	 2.407598	 18.172820	-0.209141	 6.936435	 7.642859	-0.967899	 13.022150	 4.105176	-2.515773	 15.831250	 2.043153	 0.770336	-114.597400	 89.344490	-154.505300	 54.930260	 57.918320	-77.313480	-3.814243	-3.864380	-22.533400	 3.567533	-10.868350	-5.559237	-3.812334	 37.924440	-2.927599	-2.450526	 36.184240	 0.754587	-1.378229	 35.397820	-2.634230	 0.409968	 2.157158	-0.562593	 4.609854	 6.293693	-1.037992	 94.759250	 86.873310	 171.459100	-52.637320	 68.597060	 71.780270	-2.958599	-12.900460	 27.348580	-21.107370	-11.759360	 9.894821	 6.437017	 35.671460	-0.771858	 2.830251	 35.756010	-7.813440	-2.350882	 35.473990	 5.254307
-3.091337	-13.901680	 0.337486	-28.688660	 8.083085	 1.849807	 4.604003	-23.649970	 174.020200	-1.878218	-42.427000	-0.348589	 0.478618	 85.362660	-1.076245	-2.384964	 28.647050	-0.004201	-2.402665	-24.324540	-178.663500	-0.057394	-42.963100	 0.146250	-1.068857	 86.163700	 1.463849	 2.407550	 18.353480	-0.205601	 6.692116	 7.728796	-0.994829	 12.941990	 3.972301	-2.507816	 15.729150	 1.870272	 0.789138	-114.142900	 89.322180	-154.916800	 54.485040	 57.562310	-77.111810	-3.691929	-3.896060	-23.065110	 3.417473	-10.905510	-5.601928	-3.812334	 37.924440	-2.927599	-2.450526	 36.184240	 0.754587	-1.378229	 35.397820	-2.634230	 0.394529	 2.004704	-0.551293	 4.569278	 6.266903	-1.010265	 94.779880	 86.862320	 171.406900	-52.286900	 68.157980	 71.736830	-2.849377	-12.916910	 27.868740	-20.703830	-11.789400	 9.941232	 6.437017	 35.671460	-0.771858	 2.830251	 35.756010	-7.813440	-2.350882	 35.473990	 5.254307
-3.090128	-13.900470	 0.335682	-28.742610	 8.121732	 1.856738	 4.666586	-24.044120	 174.009200	-1.933938	-43.009590	-0.358346	 0.602539	 85.526830	-1.197942	-2.384810	 28.679650	-0.004912	-2.390575	-24.750700	-178.625700	-0.076241	-43.508100	 0.156237	-1.255874	 86.297100	 1.653663	 2.407470	 18.568450	-0.201372	 6.417639	 7.836596	-1.025780	 12.855090	 3.838430	-2.497467	 15.626300	 1.698708	 0.807406	-113.671400	 89.299190	-155.345400	 54.005720	 57.212010	-76.950550	-3.650090	-3.918832	-23.674530	 3.218685	-10.947650	-5.649888	-3.812334	 37.924440	-2.927599	-2.450526	 36.184240	 0.754587	-1.378229	 35.397820	-2.634230	 0.383434	 1.849096	-0.544490	 4.531377	 6.229945	-0.959641	 94.802350	 86.847370	 171.345100	-51.908490	 67.710060	 71.733090	-2.701810	-12.938420	 28.433550	-20.281890	-11.821080	 9.994982	 6.437017	 35.671460	-0.771858	 2.830251	 35.756010	-7.813440	-2.350882	 35.473990	 5.254307
-3.088773	-13.898990	 0.333653	-28.801690	 8.175673	 1.855201	 4.725637	-24.502550	 173.997900	-1.990271	-43.652440	-0.370864	 0.736893	 85.706820	-1.331548	-2.384562	 28.735140	-0.006113	-2.374726	-25.260600	-178.583400	-0.100692	-44.119870	 0.165857	-1.460566	 86.442570	 1.859289	 2.407349	 18.834190	-0.196147	 6.108793	 7.965317	-1.050802	 12.761500	 3.697761	-2.482039	 15.522180	 1.520052	 0.826252	-113.215600	 89.274220	-155.753900	 53.486100	 56.864340	-76.814900	-3.798262	-3.881479	-24.386260	 2.843776	-10.995640	-5.704087	-3.812334	 37.924440	-2.927599	-2.450526	 36.184240	 0.754587	-1.378229	 35.397820	-2.634230	 0.377646	 1.676795	-0.548187	 4.496455	 6.183375	-0.883792	 94.825180	 86.826830	 171.273100	-51.503910	 67.250240	 71.790440	-2.506659	-12.962580	 29.046090	-19.836460	-11.856580	 10.054640	 6.437017	 35.671460	-0.771858	 2.830251	 35.756010	-7.813440	-2.350882	 35.473990	 5.254307
-3.087252	-13.897200	 0.331423	-28.867090	 8.254224	 1.832891	 4.749938	-25.038620	 173.996500	-2.040119	-44.356010	-0.399620	 0.878202	 85.902990	-1.487744	-2.384261	 28.801000	-0.007543	-2.353673	-25.856360	-178.539700	-0.124713	-44.798740	 0.179926	-1.684606	 86.600910	 2.087450	 2.407172	 19.162100	-0.189680	 5.770242	 8.119861	-1.061678	 12.662140	 3.545783	-2.459090	 15.417390	 1.326879	 0.846688	-112.808500	 89.248010	-156.106100	 52.926610	 56.527730	-76.681650	-4.076727	-3.803640	-25.200800	 2.354641	-11.048760	-5.763959	-3.812334	 37.924440	-2.927599	-2.450526	 36.184240	 0.754587	-1.378229	 35.397820	-2.634230	 0.377782	 1.474266	-0.551668	 4.466739	 6.128161	-0.806913	 94.847850	 86.799430	 171.190600	-51.076260	 66.786430	 71.919040	-2.256495	-12.985780	 29.698770	-19.369140	-11.895380	 10.120040	 6.437017	 35.671460	-0.771858	 2.830251	 35.756010	-7.813440	-2.350882	 35.473990	 5.254307
-3.085537	-13.895130	 0.329011	-28.940010	 8.365119	 1.786924	 4.751135	-25.657050	 174.020400	-2.151205	-45.124960	-0.485296	 0.738966	 86.117890	-1.411867	-2.383914	 28.876900	-0.009191	-2.281758	-26.514520	-178.491700	-0.129544	-45.549240	 0.240557	-1.588085	 86.774630	 2.033236	 2.406924	 19.521530	-0.182581	 5.406219	 8.310274	-1.063866	 12.559680	 3.384993	-2.427257	 15.313430	 1.120447	 0.868579	-112.476400	 89.221160	-156.372600	 52.329270	 56.201400	-76.548580	-4.422869	-3.707748	-26.116490	 1.815296	-11.107040	-5.829398	-3.812334	 37.924440	-2.927599	-2.450526	 36.184240	 0.754587	-1.378229	 35.397820	-2.634230	 0.385180	 1.243530	-0.562463	 4.441819	 6.061232	-0.709356	 94.868860	 86.764570	 171.097600	-50.589870	 66.336340	 72.056720	-1.941214	-13.004050	 30.389180	-18.876330	-11.937350	 10.191420	 6.437017	 35.671460	-0.771858	 2.830251	 35.756010	-7.813440	-2.350882	 35.473990	 5.254307
-3.083559	-13.892710	 0.326309	-29.027590	 8.503611	 1.729592	 4.778567	-26.378950	 174.067400	-2.255569	-45.995090	-0.551283	 0.935748	 86.360240	-1.653863	-2.383495	 28.966960	-0.011153	-2.247950	-27.260720	-178.469200	-0.150775	-46.406230	 0.267391	-1.898817	 86.970170	 2.356317	 2.406638	 19.882150	-0.175440	 5.006982	 8.554660	-1.069524	 12.455440	 3.212412	-2.385950	 15.206500	 0.895410	 0.892386	-112.228800	 89.191820	-156.537900	 51.673460	 55.874100	-76.408930	-4.805639	-3.604691	-27.148520	 1.250839	-11.172880	-5.902968	-3.812334	 37.924440	-2.927599	-2.450526	 36.184240	 0.754587	-1.378229	 35.397820	-2.634230	 0.402368	 0.977052	-0.585757	 4.415891	 5.976544	-0.566109	 94.887500	 86.718730	 170.990200	-50.016040	 65.879940	 72.179470	-1.558815	-13.014010	 31.140400	-18.339970	-11.997730	 10.258440	 6.437017	 35.671460	-0.771858	 2.830251	 35.756010	-7.813440	-2.350882	 35.473990	 5.254307
